<?xml version="1.0" encoding="utf-8"?>
<!-- Generator: Adobe Illustrator 27.6.1, SVG Export Plug-In . SVG Version: 6.00 Build 0)  -->
<svg version="1.1" id="Camada_1" xmlns="http://www.w3.org/2000/svg" xmlns:xlink="http://www.w3.org/1999/xlink" x="0px" y="0px"
	 viewBox="0 0 311.81 73.7" style="enable-background:new 0 0 311.81 73.7;" xml:space="preserve">
<style type="text/css">
	.st0{fill:#FFFFFF;}
	.st1{fill:#3AAA35;}
	.st2{fill:none;}
</style>
<g>
	<path class="st0" d="M61.87,39.28L50.72,21.05l0.1,18.24h-3.8V13.62h3.49l11.15,18.24l-0.1-18.24h3.8v25.66H61.87z M69.94,26.45
		c0-7.25,1.64-13.24,9.89-13.24s9.89,5.99,9.89,13.24S88.08,39.7,79.83,39.7S69.94,33.71,69.94,26.45z M73.88,26.45
		c0,6.09,1.09,9.75,5.95,9.75s5.95-3.66,5.95-9.75c0-6.09-1.09-9.75-5.95-9.75S73.88,20.36,73.88,26.45z M110.35,31.52
		c0,4.86-2.87,8.18-9.75,8.18c-2.57,0-5.85-0.58-7.6-1.47v-3.83c1.4,0.62,3.87,1.68,7.36,1.68c4.62,0,5.99-1.88,5.99-4.31
		c0-2.84-1.2-3.52-4.65-3.97c-6.26-0.79-8.69-2.46-8.69-7.15c0-3.76,2.12-7.42,9.1-7.42c3.32,0,5.65,0.58,6.95,1.23v3.73
		c-1.88-0.82-4.21-1.33-6.74-1.33c-4,0-5.37,1.64-5.37,3.83c0,2.77,1.57,3.25,4.96,3.7C107.24,25.09,110.35,26.28,110.35,31.52z
		 M140.19,26.45c0-7.25,1.64-13.24,9.89-13.24s9.89,5.99,9.89,13.24s-1.64,13.24-9.89,13.24S140.19,33.71,140.19,26.45z
		 M144.13,26.45c0,6.09,1.09,9.75,5.95,9.75c4.86,0,5.95-3.66,5.95-9.75c0-6.09-1.09-9.75-5.95-9.75
		C145.22,16.7,144.13,20.36,144.13,26.45z M172.52,17.15v22.14h-3.83V17.15h-6.67v-3.52h17.18v3.52H172.52z M186.79,39.28h-3.83
		V13.62h8.35c6.64,0,8.76,2.98,8.76,7.63c0,3.32-1.03,5.75-4.17,6.84l5.37,11.19h-4.48l-4.65-10.44h-5.34V39.28z M186.79,25.36h5.06
		c3.56,0,4.04-2.02,4.04-4.11c0-2.12-0.48-4.11-4.04-4.11h-5.06V25.36z M204.61,26.45c0-7.25,1.64-13.24,9.89-13.24
		s9.89,5.99,9.89,13.24s-1.64,13.24-9.89,13.24S204.61,33.71,204.61,26.45z M208.54,26.45c0,6.09,1.09,9.75,5.95,9.75
		c4.86,0,5.95-3.66,5.95-9.75c0-6.09-1.09-9.75-5.95-9.75C209.64,16.7,208.54,20.36,208.54,26.45z M245.02,31.52
		c0,4.86-2.87,8.18-9.75,8.18c-2.57,0-5.85-0.58-7.6-1.47v-3.83c1.4,0.62,3.87,1.68,7.36,1.68c4.62,0,5.99-1.88,5.99-4.31
		c0-2.84-1.2-3.52-4.65-3.97c-6.26-0.79-8.69-2.46-8.69-7.15c0-3.76,2.12-7.42,9.1-7.42c3.32,0,5.65,0.58,6.95,1.23v3.73
		c-1.88-0.82-4.21-1.33-6.74-1.33c-4,0-5.37,1.64-5.37,3.83c0,2.77,1.57,3.25,4.96,3.7C241.9,25.09,245.02,26.28,245.02,31.52z"/>
	<polygon class="st1" points="135.5,18.74 132.79,16.03 125.08,23.74 117.36,16.03 114.65,18.74 122.37,26.45 114.65,34.17 
		117.36,36.88 125.08,29.16 132.79,36.88 135.5,34.17 127.79,26.45 	"/>
	<g>
		<path class="st0" d="M51.78,57.55h-4.32v4.73h-1.59V51.62h6.36v1.46h-4.77v3h4.32V57.55z"/>
		<path class="st0" d="M55.33,55.17v4.87c0,0.72,0.37,1.05,1.12,1.05c0.74,0,1.25-0.2,1.63-0.41v-5.51h1.59v7.1h-0.94l-0.26-0.57
			c-0.72,0.5-1.53,0.74-2.3,0.74c-1.8,0-2.44-0.89-2.44-2.26v-5.01H55.33z"/>
		<path class="st0" d="M65.87,62.27V57.4c0-0.72-0.37-1.05-1.12-1.05c-0.74,0-1.25,0.2-1.63,0.41v5.51h-1.59v-7.1h0.94l0.26,0.57
			c0.72-0.5,1.53-0.74,2.3-0.74c1.8,0,2.44,0.89,2.44,2.26v5.01H65.87z"/>
		<path class="st0" d="M73.8,55.56v-3.93h1.59v10.65h-0.94l-0.26-0.57c-0.62,0.45-1.35,0.74-2.3,0.74c-2.07,0-2.84-1.39-2.84-3.72
			c0-2.31,0.77-3.72,2.84-3.72C72.6,55,73.28,55.23,73.8,55.56z M70.66,58.72c0,1.32,0.21,2.37,1.6,2.37c0.75,0,1.25-0.26,1.53-0.41
			v-3.92c-0.28-0.16-0.78-0.41-1.53-0.41C70.87,56.35,70.66,57.42,70.66,58.72z"/>
		<path class="st0" d="M79.77,56.37c-0.92,0-1.68,0.21-2.22,0.43v-1.38c0.55-0.24,1.49-0.41,2.33-0.41c2.33,0,2.87,1.02,2.87,2.53
			v4.74h-0.94l-0.26-0.57c-0.57,0.47-1.36,0.74-2.14,0.74c-1.83,0-2.44-1.14-2.44-2.27c0-1.53,0.99-2.19,2.6-2.31l1.59-0.13v-0.36
			C81.17,56.65,80.83,56.37,79.77,56.37z M79.68,58.99c-0.71,0.09-1.12,0.35-1.12,1.09c0,0.54,0.23,1.05,1.09,1.05
			c0.64,0,1.08-0.18,1.52-0.47v-1.85L79.68,58.99z"/>
		<path class="st0" d="M87.74,61.04c0.82,0,1.35-0.13,1.86-0.33v1.38c-0.55,0.24-1.22,0.35-1.96,0.35c-2.51,0-3.28-1.51-3.28-3.72
			c0-2.21,0.77-3.72,3.28-3.72c0.74,0,1.41,0.11,1.96,0.35v1.38c-0.51-0.2-1.04-0.33-1.86-0.33c-1.38,0-1.77,0.94-1.77,2.31
			C85.97,60.1,86.36,61.04,87.74,61.04z"/>
		<path class="st0" d="M92.17,52.04c0.57,0,1.04,0.47,1.04,1.04c0,0.57-0.47,1.04-1.04,1.04c-0.57,0-1.04-0.47-1.04-1.04
			C91.14,52.5,91.6,52.04,92.17,52.04z M91.38,60.53v-5.35h1.59v5.34c0,0.4,0.14,0.54,0.6,0.54v1.29c0,0-0.14,0.03-0.31,0.03
			C91.96,62.37,91.38,61.75,91.38,60.53z"/>
		<path class="st0" d="M94.97,58.72c0-2.19,0.62-3.72,3.15-3.72c2.53,0,3.15,1.53,3.15,3.72c0,2.19-0.62,3.72-3.15,3.72
			C95.6,62.44,94.97,60.91,94.97,58.72z M99.67,58.72c0-1.52-0.2-2.39-1.55-2.39s-1.55,0.87-1.55,2.39c0,1.52,0.2,2.39,1.55,2.39
			S99.67,60.24,99.67,58.72z M97.46,54.46l0.82-2.84h1.92l-1.41,2.84H97.46z"/>
		<path class="st0" d="M107.27,62.27V57.4c0-0.72-0.37-1.05-1.12-1.05c-0.74,0-1.25,0.2-1.63,0.41v5.51h-1.59v-7.1h0.94l0.26,0.57
			c0.72-0.5,1.53-0.74,2.3-0.74c1.8,0,2.44,0.89,2.44,2.26v5.01H107.27z"/>
		<path class="st0" d="M117.31,53.09v9.19h-1.59v-9.19h-2.77v-1.46h7.13v1.46H117.31z"/>
		<path class="st0" d="M123.2,55c2.5,0,2.9,1.65,2.9,3.61c0,0.24-0.01,0.47-0.03,0.7h-4.42c0.03,1.06,0.41,1.76,1.86,1.76
			c0.89,0,1.63-0.16,2.26-0.43V62c-0.81,0.34-1.73,0.44-2.5,0.44c-2.37,0-3.22-1.42-3.22-3.72C120.05,56.44,120.89,55,123.2,55z
			 M121.66,58.2h2.84c0-0.97-0.06-1.82-1.29-1.82C122.04,56.38,121.71,57.13,121.66,58.2z"/>
		<path class="st0" d="M131.96,56.45c-0.17-0.06-0.45-0.09-0.78-0.09c-0.84,0-1.46,0.2-1.82,0.43v5.48h-1.59v-7.1h0.94l0.26,0.57
			c0.53-0.43,1.32-0.74,2.24-0.74c0.3,0,0.55,0.04,0.75,0.08V56.45z"/>
		<path class="st0" d="M137.45,56.45c-0.17-0.06-0.45-0.09-0.78-0.09c-0.84,0-1.46,0.2-1.82,0.43v5.48h-1.59v-7.1h0.94l0.26,0.57
			c0.53-0.43,1.32-0.74,2.24-0.74c0.3,0,0.55,0.04,0.75,0.08V56.45z"/>
		<path class="st0" d="M139.68,52.04c0.57,0,1.04,0.47,1.04,1.04c0,0.57-0.47,1.04-1.04,1.04c-0.57,0-1.04-0.47-1.04-1.04
			C138.64,52.5,139.11,52.04,139.68,52.04z M138.88,60.53v-5.35h1.59v5.34c0,0.4,0.14,0.54,0.6,0.54v1.29c0,0-0.14,0.03-0.31,0.03
			C139.46,62.37,138.88,61.75,138.88,60.53z"/>
		<path class="st0" d="M146.75,62.34c-0.24,0.06-0.64,0.1-0.88,0.1c-1.58,0-2.5-0.68-2.5-2.22v-3.71h-1.29v-0.98l1.29-0.37v-1.69
			l1.59-0.45v2.14h2v1.35h-2v3.52c0,0.71,0.35,1.05,1.16,1.05c0.24,0,0.45-0.03,0.62-0.06V62.34z"/>
		<path class="st0" d="M148.16,58.72c0-2.19,0.62-3.72,3.15-3.72c2.53,0,3.15,1.53,3.15,3.72c0,2.19-0.62,3.72-3.15,3.72
			C148.78,62.44,148.16,60.91,148.16,58.72z M152.86,58.72c0-1.52-0.2-2.39-1.55-2.39c-1.35,0-1.55,0.87-1.55,2.39
			c0,1.52,0.2,2.39,1.55,2.39C152.66,61.11,152.86,60.24,152.86,58.72z"/>
		<path class="st0" d="M160.3,56.45c-0.17-0.06-0.45-0.09-0.78-0.09c-0.84,0-1.46,0.2-1.82,0.43v5.48h-1.59v-7.1h0.94l0.26,0.57
			c0.53-0.43,1.32-0.74,2.24-0.74c0.3,0,0.55,0.04,0.75,0.08V56.45z"/>
		<path class="st0" d="M162.53,52.04c0.57,0,1.04,0.47,1.04,1.04c0,0.57-0.47,1.04-1.04,1.04c-0.57,0-1.04-0.47-1.04-1.04
			C161.49,52.5,161.96,52.04,162.53,52.04z M161.73,60.53v-5.35h1.59v5.34c0,0.4,0.14,0.54,0.6,0.54v1.29c0,0-0.14,0.03-0.31,0.03
			C162.31,62.37,161.73,61.75,161.73,60.53z"/>
		<path class="st0" d="M168.07,56.37c-0.92,0-1.68,0.21-2.21,0.43v-1.38c0.55-0.24,1.49-0.41,2.33-0.41c2.33,0,2.87,1.02,2.87,2.53
			v4.74h-0.94l-0.26-0.57c-0.57,0.47-1.36,0.74-2.14,0.74c-1.83,0-2.44-1.14-2.44-2.27c0-1.53,0.99-2.19,2.6-2.31l1.59-0.13v-0.36
			C169.46,56.65,169.12,56.37,168.07,56.37z M167.97,58.99c-0.71,0.09-1.12,0.35-1.12,1.09c0,0.54,0.23,1.05,1.09,1.05
			c0.64,0,1.08-0.18,1.52-0.47v-1.85L167.97,58.99z"/>
		<path class="st0" d="M172.99,60.53v-8.9h1.59v8.89c0,0.4,0.14,0.54,0.6,0.54v1.29c0,0-0.14,0.03-0.31,0.03
			C173.58,62.37,172.99,61.75,172.99,60.53z"/>
		<path class="st0" d="M185.38,59.68h-3.41l-0.75,2.6h-1.73l3.38-10.78h1.62l3.38,10.78h-1.73L185.38,59.68z M183.67,53.65
			l-1.36,4.71h2.73L183.67,53.65z"/>
		<path class="st0" d="M190.96,62.27h-1.59V51.62h3.47c2.75,0,3.64,1.24,3.64,3.17c0,1.38-0.43,2.39-1.73,2.84l2.23,4.64h-1.86
			l-1.93-4.33h-2.22V62.27z M190.96,56.49h2.1c1.48,0,1.68-0.84,1.68-1.7c0-0.88-0.2-1.7-1.68-1.7h-2.1V56.49z"/>
		<path class="st0" d="M204.49,57.49h-4.43v3.32h4.88v1.46h-6.48V51.62h6.48v1.46h-4.88v2.94h4.43V57.49z"/>
		<path class="st0" d="M212.6,61.99l3.32,0.68v1.62l-6.63-2.02c-2.2-0.67-2.66-2.74-2.66-5.32c0-3.14,0.71-5.5,4.1-5.5
			c3.41,0,4.1,2.36,4.1,5.5c0,2.41-0.35,4.34-2.24,5.03V61.99z M208.27,56.95c0,2.53,0.45,4.05,2.47,4.05
			c2.02,0,2.47-1.52,2.47-4.05c0-2.53-0.45-4.05-2.47-4.05C208.72,52.9,208.27,54.42,208.27,56.95z"/>
		<path class="st0" d="M216.65,58.92v-7.3h1.59v7.16c0,2,1.39,2.22,2.27,2.22s2.27-0.21,2.27-2.22v-7.16h1.59v7.3
			c0,2.98-2.41,3.52-3.86,3.52C219.06,62.44,216.65,61.9,216.65,58.92z"/>
		<path class="st0" d="M226.55,62.27V51.62h1.59v10.65H226.55z"/>
		<path class="st0" d="M231.97,62.27h-1.59V51.62h3.42c2.74,0,3.69,1.59,3.69,3.34c0,1.75-0.95,3.32-3.69,3.32h-1.83V62.27z
			 M231.97,56.84h1.9c1.59,0,1.89-1.08,1.89-1.87c0-0.79-0.3-1.87-1.89-1.87h-1.9V56.84z"/>
		<path class="st0" d="M243.22,59.68h-3.41l-0.75,2.6h-1.73l3.38-10.78h1.62l3.38,10.78h-1.73L243.22,59.68z M241.52,53.65
			l-1.36,4.71h2.73L241.52,53.65z"/>
	</g>
</g>
<rect x="12.08" y="2.16" class="st2" width="284.07" height="69.56"/>
</svg>
